<?xml version="1.0" encoding="utf-8"?>
<!-- Generator: Adobe Illustrator 22.0.0, SVG Export Plug-In . SVG Version: 6.00 Build 0)  -->
<svg version="1.1" id="Calque_1" xmlns="http://www.w3.org/2000/svg" xmlns:xlink="http://www.w3.org/1999/xlink" x="0px" y="0px"
	 viewBox="0 0 125 150" style="enable-background:new 0 0 125 150;" xml:space="preserve">
<style type="text/css">
	.st0{fill:#2BA3A3;}
	.st1{fill:#FFFFFF;}
	.st2{fill:#778691;}
	.st3{fill:#BDF9F9;}
	.st4{fill:#E4E5E6;}
	.st5{fill:#231F20;}
	.st6{fill:#D1D3D4;}
</style>
<g>
	<g>
		<g>
			<path class="st0" d="M30.9,133.2c0.1,0.4,0.4,0.7,0.9,0.7c0.6,0,0.8-0.3,0.8-0.6c0-0.4-0.2-0.6-0.9-0.8c-0.9-0.2-1.2-0.5-1.2-1
				c0-0.5,0.4-1,1.2-1c0.9,0,1.2,0.5,1.3,1h-0.5c-0.1-0.3-0.3-0.6-0.8-0.6c-0.4,0-0.7,0.2-0.7,0.5c0,0.3,0.2,0.5,0.8,0.6
				c1,0.3,1.2,0.7,1.2,1.1c0,0.6-0.4,1.1-1.3,1.1c-0.9,0-1.3-0.5-1.4-1.1L30.9,133.2L30.9,133.2z"/>
			<path class="st0" d="M38,132.6c0-0.7,0-1.4,0-1.8h0c-0.2,0.6-0.8,2.2-1.2,3.3h-0.4c-0.3-0.9-0.9-2.7-1.1-3.3h0c0,0.4,0,1.2,0,1.9
				v1.5h-0.5v-3.7h0.7c0.4,1.1,0.9,2.6,1,3.1h0c0.1-0.4,0.7-2,1.1-3.1h0.7v3.7H38L38,132.6L38,132.6z"/>
			<path class="st0" d="M40.9,133.1l-0.4,1.1H40l1.3-3.7h0.6l1.4,3.7h-0.5l-0.4-1.1L40.9,133.1L40.9,133.1z M42.2,132.7
				c-0.4-1-0.5-1.5-0.6-1.7l0,0c-0.1,0.3-0.3,0.9-0.6,1.7H42.2z"/>
			<path class="st0" d="M45.3,132.6v1.6h-0.5v-3.7h1.4c0.8,0,1.2,0.4,1.2,1c0,0.5-0.3,0.8-0.6,0.9c0.3,0.1,0.6,0.3,0.6,0.9v0.2
				c0,0.3,0,0.6,0,0.7h-0.5c-0.1-0.2-0.1-0.4-0.1-0.8v-0.1c0-0.5-0.1-0.8-0.8-0.8L45.3,132.6L45.3,132.6z M45.3,132.2h0.8
				c0.6,0,0.8-0.2,0.8-0.6c0-0.4-0.3-0.6-0.8-0.6h-0.8L45.3,132.2L45.3,132.2z"/>
			<path class="st0" d="M49.9,131h-1.2v-0.4h2.9v0.4h-1.2v3.2h-0.5L49.9,131L49.9,131z"/>
			<path class="st0" d="M56,130.5v3.7h-0.5v-3.7H56L56,130.5z"/>
			<path class="st0" d="M58.6,131h-1.2v-0.4h2.9v0.4h-1.2v3.2h-0.5L58.6,131L58.6,131z"/>
			<g>
				<path class="st0" d="M64.2,133.2c0.1,0.4,0.4,0.7,0.9,0.7c0.6,0,0.8-0.3,0.8-0.6c0-0.4-0.2-0.6-0.9-0.8c-0.9-0.2-1.2-0.5-1.2-1
					c0-0.5,0.4-1,1.2-1c0.9,0,1.2,0.5,1.3,1h-0.5c-0.1-0.3-0.3-0.6-0.8-0.6c-0.4,0-0.7,0.2-0.7,0.5c0,0.3,0.2,0.5,0.8,0.6
					c1,0.3,1.2,0.7,1.2,1.1c0,0.6-0.4,1.1-1.3,1.1c-0.9,0-1.3-0.5-1.4-1.1L64.2,133.2L64.2,133.2z"/>
				<path class="st0" d="M70.4,132.5h-1.8v1.3h2l-0.1,0.4h-2.4v-3.7h2.4v0.4h-1.9v1.1h1.8L70.4,132.5L70.4,132.5z"/>
				<path class="st0" d="M72.7,132.6v1.6h-0.5v-3.7h1.4c0.8,0,1.2,0.4,1.2,1c0,0.5-0.3,0.8-0.6,0.9c0.3,0.1,0.6,0.3,0.6,0.9v0.2
					c0,0.3,0,0.6,0,0.7h-0.5c-0.1-0.2-0.1-0.4-0.1-0.8v-0.1c0-0.5-0.1-0.8-0.8-0.8L72.7,132.6L72.7,132.6z M72.7,132.2h0.8
					c0.6,0,0.8-0.2,0.8-0.6c0-0.4-0.3-0.6-0.8-0.6h-0.8L72.7,132.2L72.7,132.2z"/>
				<path class="st0" d="M77.5,134.2l-1.3-3.7h0.5l0.6,1.8c0.2,0.5,0.4,1.1,0.5,1.4h0c0.1-0.3,0.3-0.9,0.5-1.4l0.7-1.8h0.5l-1.4,3.7
					L77.5,134.2L77.5,134.2z"/>
				<path class="st0" d="M81.5,130.5v3.7H81v-3.7H81.5L81.5,130.5z"/>
				<path class="st0" d="M86.2,133.2c-0.2,0.6-0.6,1.1-1.5,1.1c-1.1,0-1.7-0.8-1.7-1.9c0-1,0.5-1.9,1.7-1.9c0.9,0,1.3,0.5,1.4,1.1
					h-0.5c-0.1-0.4-0.4-0.7-1-0.7c-0.8,0-1.1,0.7-1.1,1.5c0,0.7,0.3,1.5,1.2,1.5c0.6,0,0.8-0.3,0.9-0.7L86.2,133.2L86.2,133.2z"/>
				<path class="st0" d="M90.3,132.5h-1.8v1.3h2l-0.1,0.4H88v-3.7h2.4v0.4h-1.9v1.1h1.8L90.3,132.5L90.3,132.5z"/>
				<path class="st0" d="M92.3,133.2c0.1,0.4,0.4,0.7,0.9,0.7c0.6,0,0.8-0.3,0.8-0.6c0-0.4-0.2-0.6-0.9-0.8c-0.9-0.2-1.2-0.5-1.2-1
					c0-0.5,0.4-1,1.2-1c0.9,0,1.2,0.5,1.3,1H94c-0.1-0.3-0.3-0.6-0.8-0.6c-0.4,0-0.7,0.2-0.7,0.5c0,0.3,0.2,0.5,0.8,0.6
					c1,0.3,1.2,0.7,1.2,1.1c0,0.6-0.4,1.1-1.3,1.1c-0.9,0-1.3-0.5-1.4-1.1L92.3,133.2L92.3,133.2z"/>
			</g>
		</g>
		<path d="M16.9,117.8v4.7c0,1.8,0.8,2.6,1.9,2.6c1.2,0,1.9-0.8,1.9-2.6v-4.7h1v4.7c0,2.4-1.3,3.5-3.1,3.5s-2.9-1-2.9-3.4v-4.7
			L16.9,117.8L16.9,117.8z"/>
		<path d="M24.6,117.8v8h-1v-8H24.6z"/>
		<path d="M26.4,125.8v-8h1.1l2.6,4c0.6,0.8,1,1.7,1.5,2.6l0,0c-0.1-1-0.1-2-0.1-3.3v-3.3h1v8h-1l-2.6-4c-0.6-0.8-1-1.7-1.5-2.6
			h-0.1c0.1,1,0.1,1.9,0.1,3.3v3.4H26.4L26.4,125.8z"/>
		<path d="M34.2,117.9c0.7-0.1,1.5-0.1,2.2-0.1c1.2-0.1,2.3,0.3,3.3,1c0.8,0.8,1.2,1.8,1.1,2.9c0.1,1.2-0.4,2.3-1.2,3.1
			c-1,0.8-2.2,1.3-3.5,1.1c-0.6,0-1.3,0-1.9-0.1L34.2,117.9L34.2,117.9z M35.3,125c0.4,0.1,0.7,0.1,1,0.1c2.2,0,3.4-1.3,3.4-3.4
			c0-1.9-1-3.1-3.3-3.1c-0.4,0-0.8,0-1.2,0.1L35.3,125L35.3,125z"/>
		<path class="st0" d="M43.7,125.8v-3.4l-2.5-4.6h1.2l1.1,2.2c0.3,0.6,0.6,1.1,0.8,1.7l0,0c0.2-0.6,0.5-1,0.8-1.7l1.2-2.2h1.2
			l-2.7,4.6v3.4H43.7z"/>
		<g>
			<path d="M13.8,125.1c-1.5,0.5-3,0.8-4.5,0.8c-3.8,0.4-7.2-2.4-7.5-6.2c-0.1-0.4-0.1-0.8,0-1.2c0-4.4,3-7.6,7.9-7.6
				c1.3,0,2.5,0.2,3.6,0.7l-0.5,1.5c-1-0.4-2.2-0.7-3.2-0.6c-3.5,0-5.9,2.2-5.9,5.9s2.2,5.9,5.6,5.9c0.8,0.1,1.7-0.1,2.5-0.4v-4.4
				h-3V118h4.8L13.8,125.1z"/>
		</g>
		<g>
			<path d="M54.6,118.7h-2.4v-0.9h5.8v0.9h-2.4v7h-1L54.6,118.7L54.6,118.7z"/>
			<path d="M63.3,122.1h-3.1v2.9h3.4v0.8h-4.4v-7.9h4.2v0.9h-3.2v2.5h3.1L63.3,122.1L63.3,122.1z"/>
			<path d="M70.7,125.5c-0.7,0.3-1.4,0.4-2.1,0.4c-2.2,0-3.9-1.4-3.9-4c-0.1-2.1,1.5-4,3.7-4.1c0.2,0,0.3,0,0.4,0
				c0.7,0,1.3,0.1,1.9,0.4l-0.3,0.8c-0.5-0.2-1-0.4-1.6-0.3c-1.8,0-3.1,1.2-3.1,3.3c0,1.9,1.1,3.2,3,3.2c0.6,0,1.1-0.1,1.6-0.3
				L70.7,125.5z"/>
			<path d="M73.2,117.9v3.3H77v-3.3h1v7.9h-1v-3.7h-3.8v3.7h-1v-7.9H73.2z"/>
			<path d="M80.1,125.7v-7.9h1.1l2.5,4c0.5,0.8,1,1.7,1.4,2.5l0,0c-0.1-1.1-0.1-2-0.1-3.3v-3.3h1v7.9h-1l-2.5-4
				c-0.6-0.9-1-1.7-1.5-2.7h0c0,1,0.1,1.9,0.1,3.3v3.4L80.1,125.7L80.1,125.7L80.1,125.7z"/>
			<path d="M94.7,121.7c0,2.7-1.6,4.1-3.7,4.1s-3.5-1.6-3.5-4c0-2.5,1.5-4.1,3.7-4.1S94.7,119.4,94.7,121.7z M88.6,121.8
				c0,1.7,0.9,3.2,2.5,3.2s2.5-1.5,2.5-3.3c0-1.6-0.8-3.2-2.5-3.2C89.5,118.6,88.6,120.1,88.6,121.8L88.6,121.8z"/>
			<path d="M96.2,117.9h1v7.1h3.4v0.8h-4.4V117.9z"/>
			<path d="M108.3,121.7c0,2.7-1.6,4.1-3.7,4.1s-3.5-1.6-3.5-4c0-2.5,1.5-4.1,3.7-4.1S108.3,119.4,108.3,121.7z M102.2,121.8
				c0,1.7,0.9,3.2,2.5,3.2s2.5-1.5,2.5-3.3c0-1.6-0.8-3.2-2.5-3.2C103,118.6,102.2,120.1,102.2,121.8z"/>
			<path d="M115.8,125.4c-0.8,0.3-1.6,0.4-2.5,0.5c-2,0.2-3.8-1.3-4-3.3c0-0.2,0-0.4,0-0.7c0-2.4,1.6-4.1,4.3-4.1
				c0.7,0,1.3,0.1,2,0.4l-0.3,0.8c-0.6-0.3-1.1-0.4-1.7-0.4c-1.9,0-3.2,1.2-3.2,3.2c0,2,1.2,3.2,3.1,3.2c0.5,0,0.9,0,1.4-0.2v-2.4
				h-1.6v-0.8h2.6L115.8,125.4z"/>
			<path d="M119.6,125.7v-3.3l-2.5-4.5h1.2l1.1,2.2c0.3,0.6,0.5,1.1,0.8,1.6l0,0c0.2-0.5,0.5-1,0.8-1.6l1.1-2.2h1.2l-2.7,4.5v3.4
				L119.6,125.7L119.6,125.7L119.6,125.7z"/>
		</g>
	</g>
	<g>
		<g>
			<path d="M62.5,107.1c-19.4,0-35.1-15.8-35.1-35.1s15.8-35.1,35.1-35.1S97.6,52.6,97.6,72C97.6,91.3,81.9,107.1,62.5,107.1z
				 M62.5,39.5c-17.9,0-32.4,14.6-32.4,32.4s14.6,32.5,32.4,32.5S94.9,89.9,94.9,72S80.4,39.5,62.5,39.5z"/>
		</g>
		<g>
			<path d="M62.5,109.3c-20.6,0-37.3-16.7-37.3-37.3s16.7-37.3,37.3-37.3S99.8,51.4,99.8,72S83.1,109.3,62.5,109.3z M62.5,35.6
				c-20.1,0-36.4,16.3-36.4,36.4s16.3,36.4,36.4,36.4S98.9,92,98.9,72C98.9,51.9,82.6,35.6,62.5,35.6z"/>
		</g>
		<path d="M67.4,35.1v-4.8c0-2.7-2.2-4.9-4.9-4.9s-4.9,2.2-4.9,4.9l0,0v4.7L67.4,35.1L67.4,35.1z"/>
		<path class="st1" d="M65.7,34.7v-5.9c0-0.3-0.3-0.7-0.7-0.7c-0.3,0-0.7,0.3-0.7,0.7v5.7C64.8,34.5,65.2,34.6,65.7,34.7z"/>
		<g>
			<g>
				<g>
					<path class="st2" d="M63,103.9v-3.2V103.9L63,103.9z M61.6,103.9L61.6,103.9l0.1-3.2h0L61.6,103.9z M64.6,103.8l-0.3-3.2l0.1,0
						L64.6,103.8L64.6,103.8z M60,103.8l0.2-3.2l0.1,0L60,103.8z M66.1,103.7l-0.4-3.1h0L66.1,103.7L66.1,103.7z M58.6,103.7
						L58.6,103.7l0.4-3.1L58.6,103.7z M67.6,103.5l-0.5-3.1l0.1,0L67.6,103.5l-0.2-1.6L67.6,103.5z M57,103.4l0.3-1.6L57,103.4
						l0.5-3.1l0.1,0L57,103.4z M69.1,103.2l-0.6-3.1l0,0L69.1,103.2L69.1,103.2z M55.6,103.2L55.6,103.2l0.7-3.1L55.6,103.2z
						 M70.5,102.9l-0.7-3.1L70.5,102.9L70.5,102.9z M54.1,102.8L54.1,102.8l0.8-3.1l0,0L54.1,102.8z M72,102.5l-1-3l0.1,0L72,102.5
						l-0.5-1.5L72,102.5z M52.6,102.3l0.5-1.5L52.6,102.3l0.9-3l0.1,0L52.6,102.3z M73.4,102l-1-3L73.4,102L73.4,102z M51.2,101.8
						L51.2,101.8l1.1-3l0,0L51.2,101.8z M74.9,101.4l-1.3-2.9l0.1,0L74.9,101.4l-0.6-1.5L74.9,101.4z M49.8,101.3l1.2-2.9l0.1,0
						L49.8,101.3z M76.3,100.8l-1.3-2.9L76.3,100.8L76.3,100.8z M48.4,100.6L48.4,100.6l1.4-2.9l0,0L48.4,100.6z M77.6,100.1
						l-1.5-2.8L77.6,100.1L77.6,100.1z M47,99.9l1.5-2.8l0.1,0L47,99.9z M78.9,99.4l-1.6-2.7L78.9,99.4L78.9,99.4z M45.7,99.2
						L45.7,99.2l1.6-2.7l0,0L45.7,99.2z M80.2,98.5l-1.7-2.6L80.2,98.5L80.2,98.5z M44.5,98.3L44.5,98.3l1.8-2.6L44.5,98.3z
						 M81.5,97.7l-1.9-2.5l0,0l0.9,1.3L81.5,97.7z M43.2,97.4l1.9-2.5l0.1,0L43.2,97.4z M82.6,96.8l-1.9-2.5L82.6,96.8L82.6,96.8z
						 M42,96.5L42,96.5l2-2.5l0,0L42,96.5z M83.8,95.8l-1-1.2l-1-1.2l0.6,0.6l-0.5-0.6l0.5,0.6L83.8,95.8L83.8,95.8z M40.9,95.5
						l1.1-1.2L40.9,95.5l2.1-2.4l0,0L40.9,95.5z M84.9,94.7l-2.2-2.3L84.9,94.7L84.9,94.7z M39.8,94.4L39.8,94.4l2.2-2.2L39.8,94.4z
						 M86,93.6l-2.3-2.1L86,93.6L86,93.6z M38.8,93.3L38.8,93.3l2.3-2.1L38.8,93.3z M87,92.5l-2.5-2l0,0L87,92.5l-1.2-1L87,92.5z
						 M37.8,92.2L37.8,92.2l2.4-2L37.8,92.2z M87.9,91.3l-2.6-1.9c0,0,0,0,0.1-0.1L87.9,91.3l-1.3-1L87.9,91.3z M36.8,91L36.8,91
						l2.5-1.9L36.8,91z M88.8,90.1l-2.6-1.8L88.8,90.1L88.8,90.1z M36,89.7L36,89.7l2.6-1.8L36,89.7z M89.6,88.8L87,87.1L89.6,88.8
						L89.6,88.8z M35.1,88.5l1.4-0.8L35.1,88.5l2.7-1.7l0,0L35.1,88.5z M90.4,87.5L87.6,86l0-0.1L90.4,87.5z M34.4,87.1l1.4-0.7
						L34.4,87.1l2.8-1.5l0,0L34.4,87.1z M91.1,86.2l-2.8-1.5L91.1,86.2C91.1,86.1,91.1,86.1,91.1,86.2z M33.7,85.8l1.4-0.7
						L33.7,85.8l2.8-1.4l0,0.1L33.7,85.8z M91.8,84.7l-2.9-1.2c0,0,0-0.1,0-0.1L91.8,84.7l-1.4-0.7L91.8,84.7z M33.1,84.4L33.1,84.4
						l2.9-1.3L33.1,84.4z M92.3,83.4l-2.9-1.2L92.3,83.4L92.3,83.4z M32.5,83L32.5,83l3-1.1L32.5,83z M92.9,81.9l-3-0.9l0-0.1
						L92.9,81.9z M32,81.5l1.5-0.5L32,81.5l3-1l0,0.1L32,81.5z M93.3,80.4l-3.1-0.8l0,0L93.3,80.4L93.3,80.4z M31.6,80.1l3.1-0.8
						l0,0.1L31.6,80.1z M93.7,79l-3.1-0.8L93.7,79L93.7,79z M31.3,78.6L31.3,78.6l3.1-0.7L31.3,78.6z M94,77.5L90.8,77l0-0.1
						L94,77.5z M31,77.1l1.6-0.3L31,77.1l3.1-0.5l0,0L31,77.1z M94.2,76l-3.1-0.5L94.2,76L94.2,76z M30.8,75.6L30.8,75.6l3.1-0.4
						L30.8,75.6z M94.3,74.4l-3.2-0.2l0-0.1L94.3,74.4l-1.6-0.1L94.3,74.4z M30.6,74.1L30.6,74.1l1.6-0.1l1.6-0.1L30.6,74.1z
						 M94.4,72.9l-3.2-0.1L94.4,72.9L94.4,72.9z M30.6,72.6l1.6,0L30.6,72.6l3.2-0.1v0.1L30.6,72.6z M94.4,71.4h-3.2H94.4L94.4,71.4
						z M33.7,71.1l-3.2-0.1v0L33.7,71.1z M91.2,70.1L91.2,70.1L91.2,70.1V70l3.2-0.2L92.2,70l2.1-0.1L92.8,70l1.6-0.1L91.2,70.1z
						 M33.8,69.7l-3.2-0.2v0L33.8,69.7z M91.1,68.7L91.1,68.7l3.1-0.4v0L91.1,68.7z M33.9,68.4l-3.1-0.4l0-0.1L33.9,68.4z
						 M90.9,67.4L90.9,67.4l3.1-0.6l0,0L90.9,67.4z M34.1,67.1L31,66.5v0L34.1,67.1L34.1,67.1z M90.6,66l3.1-0.7l0,0L90.6,66z
						 M34.4,65.7L31.3,65l0,0L34.4,65.7z M90.3,64.6l3.1-0.8l0,0.1L90.3,64.6z M34.7,64.4l-3.1-0.8l0,0L34.7,64.4L34.7,64.4z
						 M90,63.4L90,63.4l3-1l-1.5,0.5l1.5-0.5L90,63.4z M35.1,63.1l-3-1l0-0.1L35.1,63.1z M89.5,62l3-1.1l0,0.1L89.5,62z M35.6,61.8
						l-3-1.1l0,0L35.6,61.8z M89,60.8L89,60.8l2.9-1.3l-1.5,0.6l1.5-0.6L89,60.8z M36.1,60.5l-2.9-1.2l0,0L36.1,60.5z M88.4,59.5
						l2.9-1.4l0,0L88.4,59.5z M36.7,59.3l-2.9-1.4l0-0.1L36.7,59.3z M87.8,58.3L87.8,58.3l2.8-1.6l-1.4,0.7l1.4-0.7L87.8,58.3z
						 M37.3,58.1l-2.8-1.5l0,0L37.3,58.1L37.3,58.1z M87.1,57.1l2.7-1.7l0,0.1L87.1,57.1z M38,56.9l-2.7-1.6l0,0L38,56.9z M86.4,56
						l2.6-1.8l0,0L86.4,56z M38.7,55.7l-2.6-1.8L38.7,55.7L38.7,55.7z M85.6,54.9L85.6,54.9l1.3-1l1.3-0.9L85.6,54.9z M39.5,54.6
						L37,52.7l0,0L39.5,54.6L39.5,54.6z M84.8,53.7l2.4-2l0.1,0.1L84.8,53.7z M40.4,53.6L38,51.5L40.4,53.6L40.4,53.6z M83.9,52.7
						l2.3-2.1l0,0L83.9,52.7z M41.3,52.5L39,50.4l0,0L41.3,52.5z M82.9,51.7l2.2-2.2l0,0L82.9,51.7z M42.3,51.5L40,49.3l0,0
						L42.3,51.5z M82,50.8L82,50.8l2.1-2.4L83,49.6l1.1-1.2L82,50.8z M43.2,50.6l-2.1-2.4l0,0L43.2,50.6L43.2,50.6z M80.9,49.9
						L80.9,49.9l2-2.5L80.9,49.9z M44.3,49.7l-2-2.4l0,0L44.3,49.7z M79.9,49.1C79.9,49,79.9,49,79.9,49.1l1.9-2.6L79.9,49.1z
						 M45.3,48.9l-1.9-2.6L45.3,48.9L45.3,48.9z M78.7,48.2l1.8-2.6l0,0L78.7,48.2z M46.5,48.1l-0.9-1.3l-0.9-1.3L46.5,48.1
						L46.5,48.1z M77.6,47.5l1.6-2.7l0,0L77.6,47.5z M47.6,47.3L46,44.6l0.1,0L47.6,47.3z M76.4,46.8L76.4,46.8l1.5-2.8l-0.8,1.4
						L78,44L76.4,46.8z M48.8,46.7l-1.5-2.8L48.8,46.7L48.8,46.7z M75.2,46.2l1.4-2.9l0,0L75.2,46.2z M50,46l-1.4-2.9l0.1,0L50,46z
						 M74,45.6L74,45.6l1.2-2.9L74,45.6z M51.3,45.5l-1.2-2.9l0.6,1.5l-0.6-1.5L51.3,45.5L51.3,45.5z M72.7,45.1L72.7,45.1l1.1-3
						l0,0L72.7,45.1z M52.5,45l-1.1-3l0.1,0L52.5,45z M71.4,44.6L71.4,44.6l0.9-3L71.4,44.6z M53.8,44.5l-0.9-3l0.5,1.5l-0.5-1.5
						L53.8,44.5L53.8,44.5z M70.1,44.2L70.1,44.2l0.8-3.1l0,0L70.1,44.2z M55.2,44.1l-0.8-3.1l0.1,0L55.2,44.1z M68.7,43.9l0.7-3.1
						l0.1,0L68.7,43.9z M56.5,43.8l-0.6-3.1l0,0L56.5,43.8L56.5,43.8z M67.4,43.6L67.4,43.6l0.5-3.1L67.4,43.6z M57.8,43.6l-0.5-3.1
						L57.8,43.6L57.8,43.6z M66.1,43.4L66.1,43.4l0.3-3.1h0L66.1,43.4z M59.2,43.4l-0.4-3.1h0L59.2,43.4L59.2,43.4z M64.7,43.3
						L64.7,43.3l0.2-3.2l-0.1,1.6l0.1-1.6L64.7,43.3z M60.5,43.3l-0.2-3.2L60.5,43.3L60.5,43.3z M63.3,43.2L63.3,43.2l0.1-3.2h0
						L63.3,43.2z M61.9,43.2L61.8,40h0.1V43.2z"/>
				</g>
			</g>
			<g>
				<path class="st3" d="M62.7,99.2c-15.2,0-27.6-12.4-27.6-27.6s12.4-27.6,27.6-27.6s27.6,12.4,27.6,27.6
					C90.3,86.9,77.9,99.2,62.7,99.2z M62.7,44.4c-15,0-27.3,12.2-27.3,27.3S47.7,99,62.7,99S90,86.7,90,71.7
					C90,56.6,77.8,44.4,62.7,44.4z"/>
			</g>
		</g>
		<g>
			<path class="st0" d="M68.6,65.9l12.7,2.9c0.1-0.2,0.2-0.4,0.3-0.6c0.3-0.5,0.6-1.1,0.6-1.8c0-0.2,0-0.4,0-0.6c0-0.1,0-0.2,0-0.3
				l0-0.5L81.7,65c-0.1,0-0.3,0-0.4,0.1c-0.3,0-0.6,0.1-0.8,0.2c-0.4,0.1-0.7,0.2-1,0.4c-0.4,0.1-0.8,0.3-1.2,0.4c0,0-0.1,0-0.2-0.1
				c-0.1-0.1-0.3-0.2-0.4-0.3c0.1-0.1,0.1-0.3,0.1-0.5c0-0.3-0.3-0.5-0.6-0.7c0,0,0,0,0,0c0,0-0.1-0.1-0.1-0.1
				c-0.1-0.1-0.2-0.1-0.3-0.2c-0.2-0.2-0.5-0.4-0.7-0.5c-0.5-0.3-0.8-0.5-0.9-1c0-0.2-0.2-0.9-0.9-1.2c-0.1,0-0.2-0.1-0.3-0.5
				c0-0.3-0.1-0.5-0.2-0.7c0-0.1-0.1-0.2-0.1-0.3c-0.1-0.3-0.3-0.6-0.5-0.7c-0.2-0.2-0.3-0.3-0.3-0.5c0-0.2,0-0.3-0.2-0.4
				c-0.1-0.1-0.1-0.2-0.2-0.3c-0.2-0.2-0.3-0.4-0.5-0.7c-0.1-0.2-0.2-0.4-0.3-0.5l0.2-0.1l0-0.2c0-0.1,0-0.1,0-0.2
				c0-0.2,0.1-0.4,0-0.7c-0.1-0.3-0.2-0.7-0.5-1.1c-0.2-0.2-0.5-0.2-0.6-0.2c0,0-0.1,0-0.1,0c0,0-0.1,0-0.1,0c0,0,0,0-0.1,0
				c0,0,0,0-0.1,0s-0.1,0-0.1,0c0,0,0,0-0.1,0c0,0,0,0,0,0c-0.2-0.1-0.5-0.2-0.7-0.2c-0.3,0-0.7,0.1-1.1,0.4c0,0,0,0-0.1,0
				c0,0-0.1,0-0.1,0c-0.4,0-0.7-0.1-1.1-0.2c-0.1,0-0.2,0-0.2,0c-0.3-0.1-0.7-0.1-1.1-0.2L68.6,65.9z"/>
			<path class="st0" d="M42.9,64.3c0.1,0.2,0.1,0.2,0,0.3c-0.2,0.3-0.1,0.8,0.1,1c0.2,0.2,0.4,0.4,0.6,0.6c0.1,0.1,0.2,0.2,0.3,0.3
				c0.1,0.1,0.2,0.3,0.4,0.5c0.1,0.1,0.1,0.2,0.2,0.3c0.1,0.1,0.1,0.2,0.2,0.3c0.1,0.1,0.1,0.2,0.2,0.3c0.1,0.2,0.2,0.4,0.4,0.5
				l11.2-2.5L59.5,52c0,0,0,0,0,0c0,0,0,0,0,0c0,0,0,0,0.1-0.1l0,0l0.1-0.5l-0.2-0.1c0,0-0.1,0-0.1-0.1c-0.1-0.1-0.3-0.2-0.5-0.2
				c0,0,0,0,0,0c-0.2,0-0.3,0-0.5,0.1c-0.1,0-0.2,0-0.3,0c-0.1,0-0.3,0-0.4,0c-0.1,0-0.3,0-0.4,0c-0.1,0-0.3,0-0.4,0
				c-0.3,0-0.7,0-1.1,0c-0.1,0-0.3,0-0.5,0c-0.5,0-1.1,0-1.7,0.4c0,0-0.1,0-0.2,0c-0.2,0-0.4,0.1-0.6,0.3c0,0-0.1,0-0.1,0
				c0,0,0,0-0.1,0c0,0-0.1,0-0.2,0c-0.1,0-0.2-0.1-0.3-0.1c-0.1,0-0.1,0-0.2,0c-0.3,0-0.3,0-0.3-0.1c-0.1-0.1-0.2-0.3-0.5-0.3
				c-0.1,0-0.3,0-0.4,0.1c-0.2,0.2-0.4,0.4-0.5,0.6c-0.1,0.3-0.3,0.4-0.6,0.5l0,0c-0.2,0.1-0.5,0.2-0.7,0.4c0,0.1-0.1,0.2-0.2,0.2
				c-0.3,0.4-0.6,0.8-0.7,1.3c0,0.3-0.1,0.5-0.4,0.7c-0.2,0.2-0.5,0.3-0.8,0.5c-0.5,0.2-1,0.5-1.4,1c0,0,0,0,0,0
				c0,0-0.1,0.1-0.2,0.1C45.1,56.9,45,57,45,57.1l0,0c-0.1,0.1-0.1,0.2-0.2,0.4c-0.1,0.2-0.3,0.4-0.4,0.6c-0.1,0.2-0.3,0.4-0.4,0.6
				c-0.1,0.2-0.3,0.4-0.4,0.6c-0.2,0.3-0.3,0.6-0.1,0.8c0.1,0.1,0.1,0.3,0.1,0.6c0,0.1,0,0.2,0,0.4c0.1,0.9-0.2,1.6-0.7,2.3
				C42.7,63.7,42.8,64.1,42.9,64.3C42.8,64.2,42.9,64.2,42.9,64.3z"/>
			<path class="st0" d="M76.1,78.6c0-0.1-0.1-0.3-0.2-0.4c-0.1-0.3-0.2-0.5-0.3-0.8c0-0.1,0-0.2,0-0.3c0-0.2,0-0.5-0.1-0.7l-7,1.6
				l-3.3,14.8c0,0,0.1,0,0.1,0c0.2,0,0.5,0,0.7,0c0.5,0,1.2-0.1,1.8-0.6c0.2-0.2,0.3-0.3,0.5-0.5c0.5-0.5,1-0.9,1.5-1.3
				c0.8-0.7,1.2-1.3,1.2-2.1c0-0.4,0.1-0.4,0.5-0.6c0.1,0,0.2-0.1,0.3-0.1c0.5-0.3,0.8-0.5,0.8-0.8c0-0.7,0-1.3-0.1-1.9
				c-0.1-0.3,0-0.3,0.1-0.4c0.2-0.2,0.4-0.3,0.6-0.5c0.1-0.1,0.2-0.2,0.3-0.3c0,0,0.1-0.1,0.1-0.1c0.1-0.1,0.2-0.1,0.2-0.2
				c0.1-0.1,0.3-0.1,0.4-0.2c0.3-0.1,0.5-0.2,0.8-0.4c0.4-0.3,1-0.9,0.9-2c0-0.1,0-0.2,0-0.3c0-0.4-0.1-0.8,0.1-1.2
				c0.1-0.2,0-0.5,0-0.7C76.1,78.7,76.1,78.7,76.1,78.6z"/>
		</g>
		<path class="st0" d="M77.5,88.4c-0.5,0-1.1-0.4-1.2-1c0-0.1,0-0.2,0-0.3c0-0.2-0.1-0.5-0.1-0.7c0-0.4,0-1,0.6-1.5
			c0.3-0.3,0.3-0.6,0.2-1.2c0-0.1,0-0.2,0-0.3c0-0.5,0.2-1,0.5-1.3c0.2-0.2,0.5-0.4,0.9-0.4c0.1,0,0.1,0,0.2,0
			c0.1-0.1,0.2-0.2,0.4-0.2h0c0,0,0-0.1,0.1-0.1c0.2-0.3,0.4-0.5,0.7-0.8c0.1-0.1,0.1-0.2,0.2-0.3l0,0c0-0.1,0.1-0.2,0.1-0.3
			c0-0.1,0.1-0.1,0.1-0.2l0.3-0.6l0.4,0.5c0.5,0.7,0.5,1.3,0.5,1.9c0,0.2,0,0.4,0,0.6l0.1,0.7l-0.5-0.2c-0.3,1.6-1.1,2.9-1.8,4.3
			c-0.1,0.2-0.2,0.5-0.4,0.7c-0.1,0.2-0.4,0.4-0.5,0.4c-0.1,0.1-0.3,0.1-0.4,0.1c-0.1,0-0.1,0-0.2,0C77.7,88.4,77.6,88.4,77.5,88.4z
			"/>
		<path class="st4" d="M78.8,82.3c0-0.2,0.1-0.5,0.3-0.3c0.3-0.4,0.6-0.7,0.9-1.1c0.1-0.1,0.2-0.2,0.2-0.4c0.1-0.1,0.1-0.3,0.2-0.5
			c0.6,0.7,0.4,1.5,0.5,2.3c-0.1,0-0.2-0.1-0.3-0.1c-0.3,2-1.3,3.6-2.2,5.4c0,0.1-0.2,0.2-0.3,0.2c-0.2,0.1-0.4,0.1-0.6,0.2
			c-0.3,0.1-0.8-0.3-0.9-0.6c0-0.3-0.1-0.6-0.1-1c0-0.4,0-0.8,0.4-1.2c0.6-0.5,0.4-1.2,0.3-1.9c0-0.3,0.2-0.7,0.4-1
			C78.1,82.2,78.5,82.1,78.8,82.3z"/>
		<g>
			<path class="st4" d="M68.6,65.9l12.3,2.8c0.3-0.8,0.8-1.4,0.8-2.3c0-0.3,0-0.6,0.1-0.9c-0.5,0.1-0.8,0.1-1.2,0.3
				c-0.7,0.2-1.5,0.5-2.2,0.7c-0.2,0-0.4,0-0.6-0.1c-0.3-0.2-0.5-0.4-0.7-0.5c0.3-0.4,0.3-0.6-0.1-0.9c-0.1,0-0.1-0.1-0.2-0.2
				c-0.3-0.2-0.6-0.5-1-0.7c-0.5-0.3-1-0.6-1.1-1.3c-0.1-0.4-0.2-0.7-0.6-0.9c-0.3-0.1-0.5-0.5-0.5-0.9c0-0.3-0.2-0.7-0.3-1
				c-0.2-0.5-0.9-0.7-0.8-1.4c0,0-0.1-0.1-0.1-0.1c-0.2-0.3-0.5-0.6-0.7-1c-0.3-0.4-0.5-0.9-0.8-1.3c-0.2-0.3-0.3-0.5-0.5-0.8
				c0,0,0.1,0,0.1-0.1c0.3,0.4,0.6,0.7,0.9,1.1c0,0,0.1,0,0.1-0.1c0-0.3,0.1-0.5,0.1-0.8c-0.1-0.3-0.2-0.7-0.4-1
				c-0.1-0.1-0.4-0.1-0.6-0.1c-0.1,0-0.3,0-0.4,0c-0.5-0.3-1-0.2-1.4,0.1c-0.1,0.1-0.4,0.1-0.5,0.1c-0.5-0.1-0.9-0.2-1.4-0.3
				c-0.3-0.1-0.6-0.1-0.9-0.2L68.6,65.9z"/>
			<path class="st4" d="M43.3,64.7c-0.1,0.1,0,0.4,0,0.6c0.3,0.3,0.6,0.6,0.9,0.8c0.2,0.2,0.3,0.3,0.4,0.5c0.1,0.2,0.3,0.5,0.4,0.7
				c0.2,0.3,0.4,0.7,0.6,1l10.8-2.4l2.8-12.4c0-0.1-0.1-0.2-0.1-0.3c-0.2,0-0.3,0-0.5,0c0-0.1-0.1-0.1-0.1-0.2
				c0.2-0.1,0.4-0.3,0.5-0.4c0.1-0.1,0.1-0.3,0.1-0.4c-0.2-0.3-0.1-0.5,0.1-0.7c-0.2-0.1-0.3-0.2-0.5-0.2c-0.3,0-0.5,0.1-0.8,0.1
				c-0.8,0-1.6,0-2.3,0c-0.7,0.1-1.3-0.1-2,0.4C53.6,52,53.2,52,53,52.2c-0.1,0.1-0.3,0-0.5,0c-0.2,0-0.3-0.1-0.5-0.1
				c-0.3,0-0.6,0-0.8-0.3c0,0-0.2,0-0.3,0c-0.1,0.1-0.3,0.2-0.3,0.4c-0.2,0.4-0.5,0.6-0.9,0.8c-0.2,0.1-0.4,0.1-0.5,0.3
				c-0.3,0.4-0.7,0.9-0.8,1.3c-0.1,0.4-0.2,0.7-0.5,0.9c-0.7,0.5-1.6,0.7-2.2,1.4c-0.1,0.1-0.2,0.1-0.3,0.2
				c-0.1,0.1-0.1,0.2-0.2,0.2c-0.2,0.3-0.4,0.7-0.6,1c-0.3,0.4-0.6,0.8-0.8,1.2c-0.1,0.1-0.2,0.3-0.1,0.4c0.3,0.4,0.2,0.7,0.2,1.1
				c0.1,1-0.3,1.8-0.8,2.6c0,0.1,0,0.3,0,0.4C43.3,64.2,43.5,64.4,43.3,64.7z"/>
			<path class="st4" d="M75.3,77.5c0-0.3,0.1-0.7-0.1-1L68.6,78l-3.3,14.4c0.2,0,0.5,0,0.7,0c0.6,0,1.1-0.1,1.5-0.5
				c0.7-0.6,1.3-1.3,2-1.8c0.6-0.5,1.1-1,1.1-1.7c0-0.8,0.5-0.8,1-1c0.2-0.1,0.6-0.3,0.6-0.5c0-0.6,0-1.2-0.1-1.8
				c-0.1-0.4,0-0.6,0.2-0.8c0.3-0.2,0.6-0.5,0.9-0.8c0.1-0.1,0.3-0.3,0.4-0.4c0.4-0.2,0.8-0.3,1.2-0.5c0.5-0.4,0.8-0.8,0.8-1.6
				c0-0.5-0.2-1.2,0.1-1.7c0-0.1-0.1-0.3-0.1-0.4C75.5,78.4,75.3,77.9,75.3,77.5z"/>
		</g>
		<polygon class="st1" points="62.5,48 66.9,67.6 86.4,72 66.9,76.4 62.5,95.9 58.1,76.4 38.6,72 58.1,67.6 		"/>
		<g>
			<g>
				<path class="st5" d="M62.5,96.3L62.5,96.3c-0.2,0-0.3-0.1-0.4-0.3l-4.3-19.3l-19.3-4.4c-0.2,0-0.3-0.2-0.3-0.4
					c0-0.2,0.1-0.3,0.3-0.4l19.3-4.3l4.3-19.3c0-0.2,0.2-0.3,0.4-0.3c0.2,0,0.3,0.1,0.4,0.3l4.4,19.3l19.3,4.3
					c0.2,0,0.3,0.2,0.3,0.4c0,0.2-0.1,0.3-0.3,0.4l-19.3,4.4L62.8,96C62.8,96.2,62.7,96.3,62.5,96.3z M40.3,72l17.9,4
					c0.1,0,0.3,0.1,0.3,0.3l4,17.9l4-17.9c0-0.1,0.1-0.3,0.3-0.3l17.9-4l-17.9-4c-0.1,0-0.3-0.1-0.3-0.3l-4-17.9l-4,17.9
					c0,0.1-0.1,0.3-0.3,0.3L40.3,72z M58.1,67.6L58.1,67.6L58.1,67.6z"/>
			</g>
			<polygon class="st1" points="62.5,48 66.9,67.6 86.4,72 66.9,76.4 62.5,95.9 58.1,76.4 38.6,72 58.1,67.6 			"/>
			<polygon class="st6" points="38.6,72 58.1,76.4 62.5,95.9 66.9,76.4 86.4,72 86.2,71.9 38.8,71.9 			"/>
			<polygon class="st6" points="62.5,48.1 62.5,48 58.1,67.6 38.6,72 58.1,76.4 62.5,95.9 62.5,95.9 			"/>
		</g>
		<path d="M56.5,27.8c-0.6-1-0.9-2.2-0.9-3.5c0-3.8,3.1-7,7-7c3.8,0,7,3.1,7,7c0,1.4-0.4,2.6-1.1,3.7c0.3,0.7,0.4,1.4,0.4,2.1
			c1.4-1.5,2.3-3.6,2.3-5.8c0-4.7-3.9-8.6-8.6-8.6s-8.6,3.8-8.6,8.6c0,2.1,0.8,4.1,2.1,5.6C56,29.2,56.2,28.5,56.5,27.8z"/>
	</g>
</g>
</svg>
