<?xml version="1.0" encoding="utf-8"?>
<!-- Generator: Adobe Illustrator 26.2.1, SVG Export Plug-In . SVG Version: 6.00 Build 0)  -->
<svg version="1.1" id="Calque_1" xmlns="http://www.w3.org/2000/svg" xmlns:xlink="http://www.w3.org/1999/xlink" x="0px" y="0px"
	 viewBox="0 0 294 76.2" style="enable-background:new 0 0 294 76.2;" xml:space="preserve">
<style type="text/css">
	.st0{clip-path:url(#SVGID_00000127739526255030920060000003011537447328409783_);fill:#24B3AA;}
	.st1{clip-path:url(#SVGID_00000127739526255030920060000003011537447328409783_);fill:#24B2AA;}
	.st2{clip-path:url(#SVGID_00000127739526255030920060000003011537447328409783_);fill:#24B1AA;}
	.st3{clip-path:url(#SVGID_00000127739526255030920060000003011537447328409783_);fill:#24B0A9;}
	.st4{clip-path:url(#SVGID_00000127739526255030920060000003011537447328409783_);fill:#25AFA9;}
	.st5{clip-path:url(#SVGID_00000127739526255030920060000003011537447328409783_);fill:#25AEA9;}
	.st6{clip-path:url(#SVGID_00000127739526255030920060000003011537447328409783_);fill:#25ADA9;}
	.st7{clip-path:url(#SVGID_00000127739526255030920060000003011537447328409783_);fill:#25ACA9;}
	.st8{clip-path:url(#SVGID_00000127739526255030920060000003011537447328409783_);fill:#25ABA8;}
	.st9{clip-path:url(#SVGID_00000127739526255030920060000003011537447328409783_);fill:#25AAA8;}
	.st10{clip-path:url(#SVGID_00000127739526255030920060000003011537447328409783_);fill:#25A9A8;}
	.st11{clip-path:url(#SVGID_00000127739526255030920060000003011537447328409783_);fill:#26A8A8;}
	.st12{clip-path:url(#SVGID_00000127739526255030920060000003011537447328409783_);fill:#26A7A8;}
	.st13{clip-path:url(#SVGID_00000127739526255030920060000003011537447328409783_);fill:#26A6A7;}
	.st14{clip-path:url(#SVGID_00000127739526255030920060000003011537447328409783_);fill:#26A5A7;}
	.st15{clip-path:url(#SVGID_00000127739526255030920060000003011537447328409783_);fill:#26A4A7;}
	.st16{clip-path:url(#SVGID_00000127739526255030920060000003011537447328409783_);fill:#26A3A7;}
	.st17{clip-path:url(#SVGID_00000127739526255030920060000003011537447328409783_);fill:#26A2A7;}
	.st18{clip-path:url(#SVGID_00000127739526255030920060000003011537447328409783_);fill:#27A1A6;}
	.st19{clip-path:url(#SVGID_00000127739526255030920060000003011537447328409783_);fill:#27A0A6;}
	.st20{clip-path:url(#SVGID_00000127739526255030920060000003011537447328409783_);fill:#279FA6;}
	.st21{clip-path:url(#SVGID_00000127739526255030920060000003011537447328409783_);fill:#279EA6;}
	.st22{clip-path:url(#SVGID_00000127739526255030920060000003011537447328409783_);fill:#279DA6;}
	.st23{clip-path:url(#SVGID_00000127739526255030920060000003011537447328409783_);fill:#279CA5;}
	.st24{clip-path:url(#SVGID_00000127739526255030920060000003011537447328409783_);fill:#279BA5;}
	.st25{clip-path:url(#SVGID_00000127739526255030920060000003011537447328409783_);fill:#289AA5;}
	.st26{clip-path:url(#SVGID_00000127739526255030920060000003011537447328409783_);fill:#2899A5;}
	.st27{clip-path:url(#SVGID_00000127739526255030920060000003011537447328409783_);fill:#2898A5;}
	.st28{clip-path:url(#SVGID_00000127739526255030920060000003011537447328409783_);fill:#2897A4;}
	.st29{clip-path:url(#SVGID_00000127739526255030920060000003011537447328409783_);fill:#2896A4;}
	.st30{clip-path:url(#SVGID_00000127739526255030920060000003011537447328409783_);fill:#2895A4;}
	.st31{clip-path:url(#SVGID_00000127739526255030920060000003011537447328409783_);fill:#2894A4;}
	.st32{clip-path:url(#SVGID_00000127739526255030920060000003011537447328409783_);fill:#2993A3;}
	.st33{clip-path:url(#SVGID_00000127739526255030920060000003011537447328409783_);fill:#2992A3;}
	.st34{clip-path:url(#SVGID_00000127739526255030920060000003011537447328409783_);fill:#2991A3;}
	.st35{clip-path:url(#SVGID_00000127739526255030920060000003011537447328409783_);fill:#2990A3;}
	.st36{clip-path:url(#SVGID_00000127739526255030920060000003011537447328409783_);fill:#298FA3;}
	.st37{clip-path:url(#SVGID_00000127739526255030920060000003011537447328409783_);fill:#298EA2;}
	.st38{clip-path:url(#SVGID_00000127739526255030920060000003011537447328409783_);fill:#298DA2;}
	.st39{clip-path:url(#SVGID_00000127739526255030920060000003011537447328409783_);fill:#2A8CA2;}
	.st40{clip-path:url(#SVGID_00000127739526255030920060000003011537447328409783_);fill:#2A8BA2;}
	.st41{clip-path:url(#SVGID_00000127739526255030920060000003011537447328409783_);fill:#2A8AA2;}
	.st42{clip-path:url(#SVGID_00000127739526255030920060000003011537447328409783_);fill:#2A89A1;}
	.st43{clip-path:url(#SVGID_00000127739526255030920060000003011537447328409783_);fill:#2A88A1;}
	.st44{clip-path:url(#SVGID_00000127739526255030920060000003011537447328409783_);fill:#2A87A1;}
	.st45{clip-path:url(#SVGID_00000127739526255030920060000003011537447328409783_);fill:#2A86A1;}
	.st46{clip-path:url(#SVGID_00000127739526255030920060000003011537447328409783_);fill:#2B85A1;}
	.st47{clip-path:url(#SVGID_00000127739526255030920060000003011537447328409783_);fill:#2B84A0;}
	.st48{clip-path:url(#SVGID_00000127739526255030920060000003011537447328409783_);fill:#2B83A0;}
	.st49{clip-path:url(#SVGID_00000127739526255030920060000003011537447328409783_);fill:#2B82A0;}
	.st50{clip-path:url(#SVGID_00000127739526255030920060000003011537447328409783_);fill:#2B81A0;}
	.st51{clip-path:url(#SVGID_00000127739526255030920060000003011537447328409783_);fill:#2B80A0;}
	.st52{clip-path:url(#SVGID_00000127739526255030920060000003011537447328409783_);fill:#2B7F9F;}
	.st53{clip-path:url(#SVGID_00000127739526255030920060000003011537447328409783_);fill:#2C7E9F;}
	.st54{clip-path:url(#SVGID_00000127739526255030920060000003011537447328409783_);fill:#2C7D9F;}
	.st55{clip-path:url(#SVGID_00000127739526255030920060000003011537447328409783_);fill:#2C7C9F;}
	.st56{clip-path:url(#SVGID_00000127739526255030920060000003011537447328409783_);fill:#2C7B9F;}
	.st57{clip-path:url(#SVGID_00000127739526255030920060000003011537447328409783_);fill:#2C799E;}
	.st58{clip-path:url(#SVGID_00000127739526255030920060000003011537447328409783_);fill:#2C789E;}
	.st59{clip-path:url(#SVGID_00000127739526255030920060000003011537447328409783_);fill:#2C779E;}
	.st60{clip-path:url(#SVGID_00000127739526255030920060000003011537447328409783_);fill:#2C769E;}
	.st61{clip-path:url(#SVGID_00000127739526255030920060000003011537447328409783_);fill:#2D759E;}
	.st62{clip-path:url(#SVGID_00000127739526255030920060000003011537447328409783_);fill:#2D749D;}
	.st63{clip-path:url(#SVGID_00000127739526255030920060000003011537447328409783_);fill:#2D739D;}
	.st64{clip-path:url(#SVGID_00000127739526255030920060000003011537447328409783_);fill:#2D729D;}
	.st65{clip-path:url(#SVGID_00000127739526255030920060000003011537447328409783_);fill:#2D719D;}
	.st66{clip-path:url(#SVGID_00000127739526255030920060000003011537447328409783_);fill:#2D709D;}
	.st67{clip-path:url(#SVGID_00000127739526255030920060000003011537447328409783_);fill:#2D6F9C;}
	.st68{clip-path:url(#SVGID_00000127739526255030920060000003011537447328409783_);fill:#2E6E9C;}
	.st69{clip-path:url(#SVGID_00000127739526255030920060000003011537447328409783_);fill:#2E6D9C;}
	.st70{clip-path:url(#SVGID_00000127739526255030920060000003011537447328409783_);fill:#2E6C9C;}
	.st71{clip-path:url(#SVGID_00000127739526255030920060000003011537447328409783_);fill:#2E6B9C;}
	.st72{clip-path:url(#SVGID_00000127739526255030920060000003011537447328409783_);fill:#2E6A9B;}
	.st73{clip-path:url(#SVGID_00000127739526255030920060000003011537447328409783_);fill:#2E699B;}
	.st74{clip-path:url(#SVGID_00000127739526255030920060000003011537447328409783_);fill:#2E689B;}
	.st75{clip-path:url(#SVGID_00000127739526255030920060000003011537447328409783_);fill:#2F679B;}
	.st76{clip-path:url(#SVGID_00000127739526255030920060000003011537447328409783_);fill:#2F669B;}
	.st77{clip-path:url(#SVGID_00000127739526255030920060000003011537447328409783_);fill:#2F659A;}
	.st78{clip-path:url(#SVGID_00000127739526255030920060000003011537447328409783_);fill:#2F649A;}
	.st79{clip-path:url(#SVGID_00000127739526255030920060000003011537447328409783_);fill:#2F639A;}
	.st80{clip-path:url(#SVGID_00000127739526255030920060000003011537447328409783_);fill:#2F629A;}
	.st81{clip-path:url(#SVGID_00000127739526255030920060000003011537447328409783_);fill:#2F619A;}
	.st82{clip-path:url(#SVGID_00000127739526255030920060000003011537447328409783_);fill:#306099;}
	.st83{clip-path:url(#SVGID_00000127739526255030920060000003011537447328409783_);fill:#305F99;}
	.st84{clip-path:url(#SVGID_00000127739526255030920060000003011537447328409783_);fill:#305E99;}
	.st85{clip-path:url(#SVGID_00000127739526255030920060000003011537447328409783_);fill:#305D99;}
	.st86{clip-path:url(#SVGID_00000127739526255030920060000003011537447328409783_);fill:#305C98;}
	.st87{clip-path:url(#SVGID_00000127739526255030920060000003011537447328409783_);fill:#305B98;}
	.st88{clip-path:url(#SVGID_00000127739526255030920060000003011537447328409783_);fill:#305A98;}
	.st89{clip-path:url(#SVGID_00000127739526255030920060000003011537447328409783_);fill:#315998;}
	.st90{clip-path:url(#SVGID_00000127739526255030920060000003011537447328409783_);fill:#315898;}
	.st91{clip-path:url(#SVGID_00000127739526255030920060000003011537447328409783_);fill:#315797;}
	.st92{clip-path:url(#SVGID_00000127739526255030920060000003011537447328409783_);fill:#315697;}
	.st93{clip-path:url(#SVGID_00000127739526255030920060000003011537447328409783_);fill:#315597;}
	.st94{clip-path:url(#SVGID_00000127739526255030920060000003011537447328409783_);fill:#315497;}
	.st95{clip-path:url(#SVGID_00000127739526255030920060000003011537447328409783_);fill:#315397;}
	.st96{clip-path:url(#SVGID_00000127739526255030920060000003011537447328409783_);fill:#325296;}
	.st97{clip-path:url(#SVGID_00000127739526255030920060000003011537447328409783_);fill:#325196;}
	.st98{clip-path:url(#SVGID_00000127739526255030920060000003011537447328409783_);fill:#325096;}
	.st99{clip-path:url(#SVGID_00000127739526255030920060000003011537447328409783_);fill:#324F96;}
	.st100{clip-path:url(#SVGID_00000127739526255030920060000003011537447328409783_);fill:#324E96;}
	.st101{clip-path:url(#SVGID_00000127739526255030920060000003011537447328409783_);fill:#324D95;}
	.st102{clip-path:url(#SVGID_00000127739526255030920060000003011537447328409783_);fill:#324C95;}
	.st103{clip-path:url(#SVGID_00000127739526255030920060000003011537447328409783_);fill:#334B95;}
	.st104{clip-path:url(#SVGID_00000127739526255030920060000003011537447328409783_);fill:#334A95;}
	.st105{clip-path:url(#SVGID_00000127739526255030920060000003011537447328409783_);fill:#334995;}
	.st106{clip-path:url(#SVGID_00000127739526255030920060000003011537447328409783_);fill:#334894;}
	.st107{clip-path:url(#SVGID_00000127739526255030920060000003011537447328409783_);fill:#334794;}
	.st108{clip-path:url(#SVGID_00000127739526255030920060000003011537447328409783_);fill:#334694;}
	.st109{clip-path:url(#SVGID_00000127739526255030920060000003011537447328409783_);fill:#334594;}
	.st110{clip-path:url(#SVGID_00000127739526255030920060000003011537447328409783_);fill:#344494;}
	.st111{clip-path:url(#SVGID_00000127739526255030920060000003011537447328409783_);fill:#344393;}
	.st112{clip-path:url(#SVGID_00000127739526255030920060000003011537447328409783_);fill:#344293;}
	.st113{clip-path:url(#SVGID_00000127739526255030920060000003011537447328409783_);fill:#344193;}
	.st114{fill:#FFFFFF;}
</style>
<g>
	<g>
		<defs>
			<path id="SVGID_1_" d="M288.1,67.1H18.9c-7.1,0-12.9-5.8-12.9-12.9V9.1h269.2c7.1,0,12.9,5.8,12.9,12.9V67.1z"/>
		</defs>
		<clipPath id="SVGID_00000026850468078683200950000006761241587243184798_">
			<use xlink:href="#SVGID_1_"  style="overflow:visible;"/>
		</clipPath>
		<polygon style="clip-path:url(#SVGID_00000026850468078683200950000006761241587243184798_);fill:#24B3AA;" points="5.9,9.1 
			5.9,9.1 288.1,9.1 288.1,67.1 5.9,67.1 		"/>
		<path style="clip-path:url(#SVGID_00000026850468078683200950000006761241587243184798_);fill:#24B3AA;" d="M8.5,9.1l-2.6,9.8
			L8.5,9.1z"/>
		<polygon style="clip-path:url(#SVGID_00000026850468078683200950000006761241587243184798_);fill:#24B2AA;" points="11.1,9.1 
			5.9,28.8 5.9,18.9 8.5,9.1 		"/>
		<polygon style="clip-path:url(#SVGID_00000026850468078683200950000006761241587243184798_);fill:#24B1AA;" points="13.6,9.1 
			5.9,38.6 5.9,28.8 11.1,9.1 		"/>
		<polygon style="clip-path:url(#SVGID_00000026850468078683200950000006761241587243184798_);fill:#24B0A9;" points="16.2,9.1 
			5.9,48.4 5.9,38.6 13.6,9.1 		"/>
		<polygon style="clip-path:url(#SVGID_00000026850468078683200950000006761241587243184798_);fill:#25AFA9;" points="18.7,9.1 
			5.9,58.2 5.9,48.4 16.2,9.1 		"/>
		<polygon style="clip-path:url(#SVGID_00000026850468078683200950000006761241587243184798_);fill:#25AEA9;" points="21.3,9.1 
			6.2,67.1 5.9,67.1 5.9,58.2 18.7,9.1 		"/>
		<polygon style="clip-path:url(#SVGID_00000026850468078683200950000006761241587243184798_);fill:#25ADA9;" points="23.8,9.1 
			8.7,67.1 6.2,67.1 21.3,9.1 		"/>
		<polygon style="clip-path:url(#SVGID_00000026850468078683200950000006761241587243184798_);fill:#25ACA9;" points="26.4,9.1 
			11.3,67.1 8.7,67.1 23.8,9.1 		"/>
		<polygon style="clip-path:url(#SVGID_00000026850468078683200950000006761241587243184798_);fill:#25ABA8;" points="28.9,9.1 
			13.8,67.1 11.3,67.1 26.4,9.1 		"/>
		<polygon style="clip-path:url(#SVGID_00000026850468078683200950000006761241587243184798_);fill:#25AAA8;" points="31.5,9.1 
			16.4,67.1 13.8,67.1 28.9,9.1 		"/>
		<polygon style="clip-path:url(#SVGID_00000026850468078683200950000006761241587243184798_);fill:#25A9A8;" points="34.1,9.1 
			19,67.1 16.4,67.1 31.5,9.1 		"/>
		<polygon style="clip-path:url(#SVGID_00000026850468078683200950000006761241587243184798_);fill:#26A8A8;" points="36.6,9.1 
			21.5,67.1 19,67.1 34.1,9.1 		"/>
		<polygon style="clip-path:url(#SVGID_00000026850468078683200950000006761241587243184798_);fill:#26A7A8;" points="39.2,9.1 
			24.1,67.1 21.5,67.1 36.6,9.1 		"/>
		<polygon style="clip-path:url(#SVGID_00000026850468078683200950000006761241587243184798_);fill:#26A6A7;" points="41.7,9.1 
			26.6,67.1 24.1,67.1 39.2,9.1 		"/>
		<polygon style="clip-path:url(#SVGID_00000026850468078683200950000006761241587243184798_);fill:#26A5A7;" points="44.3,9.1 
			29.2,67.1 26.6,67.1 41.7,9.1 		"/>
		<polygon style="clip-path:url(#SVGID_00000026850468078683200950000006761241587243184798_);fill:#26A4A7;" points="46.8,9.1 
			31.7,67.1 29.2,67.1 44.3,9.1 		"/>
		<polygon style="clip-path:url(#SVGID_00000026850468078683200950000006761241587243184798_);fill:#26A3A7;" points="49.4,9.1 
			34.3,67.1 31.7,67.1 46.8,9.1 		"/>
		<polygon style="clip-path:url(#SVGID_00000026850468078683200950000006761241587243184798_);fill:#26A2A7;" points="51.9,9.1 
			36.8,67.1 34.3,67.1 49.4,9.1 		"/>
		<polygon style="clip-path:url(#SVGID_00000026850468078683200950000006761241587243184798_);fill:#27A1A6;" points="54.5,9.1 
			39.4,67.1 36.8,67.1 51.9,9.1 		"/>
		<polygon style="clip-path:url(#SVGID_00000026850468078683200950000006761241587243184798_);fill:#27A0A6;" points="57,9.1 
			42,67.1 39.4,67.1 54.5,9.1 		"/>
		<polygon style="clip-path:url(#SVGID_00000026850468078683200950000006761241587243184798_);fill:#279FA6;" points="59.6,9.1 
			44.5,67.1 42,67.1 57,9.1 		"/>
		<polygon style="clip-path:url(#SVGID_00000026850468078683200950000006761241587243184798_);fill:#279EA6;" points="62.2,9.1 
			47.1,67.1 44.5,67.1 59.6,9.1 		"/>
		<polygon style="clip-path:url(#SVGID_00000026850468078683200950000006761241587243184798_);fill:#279DA6;" points="64.7,9.1 
			49.6,67.1 47.1,67.1 62.2,9.1 		"/>
		<polygon style="clip-path:url(#SVGID_00000026850468078683200950000006761241587243184798_);fill:#279CA5;" points="67.3,9.1 
			52.2,67.1 49.6,67.1 64.7,9.1 		"/>
		<polygon style="clip-path:url(#SVGID_00000026850468078683200950000006761241587243184798_);fill:#279BA5;" points="69.8,9.1 
			54.7,67.1 52.2,67.1 67.3,9.1 		"/>
		<polygon style="clip-path:url(#SVGID_00000026850468078683200950000006761241587243184798_);fill:#289AA5;" points="72.4,9.1 
			57.3,67.1 54.7,67.1 69.8,9.1 		"/>
		<polygon style="clip-path:url(#SVGID_00000026850468078683200950000006761241587243184798_);fill:#2899A5;" points="74.9,9.1 
			59.8,67.1 57.3,67.1 72.4,9.1 		"/>
		<polygon style="clip-path:url(#SVGID_00000026850468078683200950000006761241587243184798_);fill:#2898A5;" points="77.5,9.1 
			62.4,67.1 59.8,67.1 74.9,9.1 		"/>
		<polygon style="clip-path:url(#SVGID_00000026850468078683200950000006761241587243184798_);fill:#2897A4;" points="80,9.1 
			65,67.1 62.4,67.1 77.5,9.1 		"/>
		<polygon style="clip-path:url(#SVGID_00000026850468078683200950000006761241587243184798_);fill:#2896A4;" points="82.6,9.1 
			67.5,67.1 65,67.1 80,9.1 		"/>
		<polygon style="clip-path:url(#SVGID_00000026850468078683200950000006761241587243184798_);fill:#2895A4;" points="85.2,9.1 
			70.1,67.1 67.5,67.1 82.6,9.1 		"/>
		<polygon style="clip-path:url(#SVGID_00000026850468078683200950000006761241587243184798_);fill:#2894A4;" points="87.7,9.1 
			72.6,67.1 70.1,67.1 85.2,9.1 		"/>
		<polygon style="clip-path:url(#SVGID_00000026850468078683200950000006761241587243184798_);fill:#2993A3;" points="90.3,9.1 
			75.2,67.1 72.6,67.1 87.7,9.1 		"/>
		<polygon style="clip-path:url(#SVGID_00000026850468078683200950000006761241587243184798_);fill:#2992A3;" points="92.8,9.1 
			77.7,67.1 75.2,67.1 90.3,9.1 		"/>
		<polygon style="clip-path:url(#SVGID_00000026850468078683200950000006761241587243184798_);fill:#2991A3;" points="95.4,9.1 
			80.3,67.1 77.7,67.1 92.8,9.1 		"/>
		<polygon style="clip-path:url(#SVGID_00000026850468078683200950000006761241587243184798_);fill:#2990A3;" points="97.9,9.1 
			82.8,67.1 80.3,67.1 95.4,9.1 		"/>
		<polygon style="clip-path:url(#SVGID_00000026850468078683200950000006761241587243184798_);fill:#298FA3;" points="100.5,9.1 
			85.4,67.1 82.8,67.1 97.9,9.1 		"/>
		<polygon style="clip-path:url(#SVGID_00000026850468078683200950000006761241587243184798_);fill:#298EA2;" points="103,9.1 
			87.9,67.1 85.4,67.1 100.5,9.1 		"/>
		<polygon style="clip-path:url(#SVGID_00000026850468078683200950000006761241587243184798_);fill:#298DA2;" points="105.6,9.1 
			90.5,67.1 87.9,67.1 103,9.1 		"/>
		<polygon style="clip-path:url(#SVGID_00000026850468078683200950000006761241587243184798_);fill:#2A8CA2;" points="108.1,9.1 
			93.1,67.1 90.5,67.1 105.6,9.1 		"/>
		<polygon style="clip-path:url(#SVGID_00000026850468078683200950000006761241587243184798_);fill:#2A8BA2;" points="110.7,9.1 
			95.6,67.1 93.1,67.1 108.1,9.1 		"/>
		<polygon style="clip-path:url(#SVGID_00000026850468078683200950000006761241587243184798_);fill:#2A8AA2;" points="113.3,9.1 
			98.2,67.1 95.6,67.1 110.7,9.1 		"/>
		<polygon style="clip-path:url(#SVGID_00000026850468078683200950000006761241587243184798_);fill:#2A89A1;" points="115.8,9.1 
			100.7,67.1 98.2,67.1 113.3,9.1 		"/>
		<polygon style="clip-path:url(#SVGID_00000026850468078683200950000006761241587243184798_);fill:#2A88A1;" points="118.4,9.1 
			103.3,67.1 100.7,67.1 115.8,9.1 		"/>
		<polygon style="clip-path:url(#SVGID_00000026850468078683200950000006761241587243184798_);fill:#2A87A1;" points="120.9,9.1 
			105.8,67.1 103.3,67.1 118.4,9.1 		"/>
		<polygon style="clip-path:url(#SVGID_00000026850468078683200950000006761241587243184798_);fill:#2A86A1;" points="123.5,9.1 
			108.4,67.1 105.8,67.1 120.9,9.1 		"/>
		<polygon style="clip-path:url(#SVGID_00000026850468078683200950000006761241587243184798_);fill:#2B85A1;" points="126,9.1 
			110.9,67.1 108.4,67.1 123.5,9.1 		"/>
		<polygon style="clip-path:url(#SVGID_00000026850468078683200950000006761241587243184798_);fill:#2B84A0;" points="128.6,9.1 
			113.5,67.1 110.9,67.1 126,9.1 		"/>
		<polygon style="clip-path:url(#SVGID_00000026850468078683200950000006761241587243184798_);fill:#2B83A0;" points="131.1,9.1 
			116.1,67.1 113.5,67.1 128.6,9.1 		"/>
		<polygon style="clip-path:url(#SVGID_00000026850468078683200950000006761241587243184798_);fill:#2B82A0;" points="133.7,9.1 
			118.6,67.1 116.1,67.1 131.1,9.1 		"/>
		<polygon style="clip-path:url(#SVGID_00000026850468078683200950000006761241587243184798_);fill:#2B81A0;" points="136.3,9.1 
			121.2,67.1 118.6,67.1 133.7,9.1 		"/>
		<polygon style="clip-path:url(#SVGID_00000026850468078683200950000006761241587243184798_);fill:#2B80A0;" points="138.8,9.1 
			123.7,67.1 121.2,67.1 136.3,9.1 		"/>
		<polygon style="clip-path:url(#SVGID_00000026850468078683200950000006761241587243184798_);fill:#2B7F9F;" points="141.4,9.1 
			126.3,67.1 123.7,67.1 138.8,9.1 		"/>
		<polygon style="clip-path:url(#SVGID_00000026850468078683200950000006761241587243184798_);fill:#2C7E9F;" points="143.9,9.1 
			128.8,67.1 126.3,67.1 141.4,9.1 		"/>
		<polygon style="clip-path:url(#SVGID_00000026850468078683200950000006761241587243184798_);fill:#2C7D9F;" points="146.5,9.1 
			131.4,67.1 128.8,67.1 143.9,9.1 		"/>
		<polygon style="clip-path:url(#SVGID_00000026850468078683200950000006761241587243184798_);fill:#2C7C9F;" points="149,9.1 
			133.9,67.1 131.4,67.1 146.5,9.1 		"/>
		<polygon style="clip-path:url(#SVGID_00000026850468078683200950000006761241587243184798_);fill:#2C7B9F;" points="151.6,9.1 
			136.5,67.1 133.9,67.1 149,9.1 		"/>
		<polygon style="clip-path:url(#SVGID_00000026850468078683200950000006761241587243184798_);fill:#2C799E;" points="154.1,9.1 
			139,67.1 136.5,67.1 151.6,9.1 		"/>
		<polygon style="clip-path:url(#SVGID_00000026850468078683200950000006761241587243184798_);fill:#2C789E;" points="156.7,9.1 
			141.6,67.1 139,67.1 154.1,9.1 		"/>
		<polygon style="clip-path:url(#SVGID_00000026850468078683200950000006761241587243184798_);fill:#2C779E;" points="159.2,9.1 
			144.2,67.1 141.6,67.1 156.7,9.1 		"/>
		<polygon style="clip-path:url(#SVGID_00000026850468078683200950000006761241587243184798_);fill:#2C769E;" points="161.8,9.1 
			146.7,67.1 144.2,67.1 159.2,9.1 		"/>
		<polygon style="clip-path:url(#SVGID_00000026850468078683200950000006761241587243184798_);fill:#2D759E;" points="164.4,9.1 
			149.3,67.1 146.7,67.1 161.8,9.1 		"/>
		<polygon style="clip-path:url(#SVGID_00000026850468078683200950000006761241587243184798_);fill:#2D749D;" points="166.9,9.1 
			151.8,67.1 149.3,67.1 164.4,9.1 		"/>
		<polygon style="clip-path:url(#SVGID_00000026850468078683200950000006761241587243184798_);fill:#2D739D;" points="169.5,9.1 
			154.4,67.1 151.8,67.1 166.9,9.1 		"/>
		<polygon style="clip-path:url(#SVGID_00000026850468078683200950000006761241587243184798_);fill:#2D729D;" points="172,9.1 
			156.9,67.1 154.4,67.1 169.5,9.1 		"/>
		<polygon style="clip-path:url(#SVGID_00000026850468078683200950000006761241587243184798_);fill:#2D719D;" points="174.6,9.1 
			159.5,67.1 156.9,67.1 172,9.1 		"/>
		<polygon style="clip-path:url(#SVGID_00000026850468078683200950000006761241587243184798_);fill:#2D709D;" points="177.1,9.1 
			162,67.1 159.5,67.1 174.6,9.1 		"/>
		<polygon style="clip-path:url(#SVGID_00000026850468078683200950000006761241587243184798_);fill:#2D6F9C;" points="179.7,9.1 
			164.6,67.1 162,67.1 177.1,9.1 		"/>
		<polygon style="clip-path:url(#SVGID_00000026850468078683200950000006761241587243184798_);fill:#2E6E9C;" points="182.2,9.1 
			167.2,67.1 164.6,67.1 179.7,9.1 		"/>
		<polygon style="clip-path:url(#SVGID_00000026850468078683200950000006761241587243184798_);fill:#2E6D9C;" points="184.8,9.1 
			169.7,67.1 167.2,67.1 182.2,9.1 		"/>
		<polygon style="clip-path:url(#SVGID_00000026850468078683200950000006761241587243184798_);fill:#2E6C9C;" points="187.4,9.1 
			172.3,67.1 169.7,67.1 184.8,9.1 		"/>
		<polygon style="clip-path:url(#SVGID_00000026850468078683200950000006761241587243184798_);fill:#2E6B9C;" points="189.9,9.1 
			174.8,67.1 172.3,67.1 187.4,9.1 		"/>
		<polygon style="clip-path:url(#SVGID_00000026850468078683200950000006761241587243184798_);fill:#2E6A9B;" points="192.5,9.1 
			177.4,67.1 174.8,67.1 189.9,9.1 		"/>
		<polygon style="clip-path:url(#SVGID_00000026850468078683200950000006761241587243184798_);fill:#2E699B;" points="195,9.1 
			179.9,67.1 177.4,67.1 192.5,9.1 		"/>
		<polygon style="clip-path:url(#SVGID_00000026850468078683200950000006761241587243184798_);fill:#2E689B;" points="197.6,9.1 
			182.5,67.1 179.9,67.1 195,9.1 		"/>
		<polygon style="clip-path:url(#SVGID_00000026850468078683200950000006761241587243184798_);fill:#2F679B;" points="200.1,9.1 
			185,67.1 182.5,67.1 197.6,9.1 		"/>
		<polygon style="clip-path:url(#SVGID_00000026850468078683200950000006761241587243184798_);fill:#2F669B;" points="202.7,9.1 
			187.6,67.1 185,67.1 200.1,9.1 		"/>
		<polygon style="clip-path:url(#SVGID_00000026850468078683200950000006761241587243184798_);fill:#2F659A;" points="205.2,9.1 
			190.1,67.1 187.6,67.1 202.7,9.1 		"/>
		<polygon style="clip-path:url(#SVGID_00000026850468078683200950000006761241587243184798_);fill:#2F649A;" points="207.8,9.1 
			192.7,67.1 190.1,67.1 205.2,9.1 		"/>
		<polygon style="clip-path:url(#SVGID_00000026850468078683200950000006761241587243184798_);fill:#2F639A;" points="210.3,9.1 
			195.3,67.1 192.7,67.1 207.8,9.1 		"/>
		<polygon style="clip-path:url(#SVGID_00000026850468078683200950000006761241587243184798_);fill:#2F629A;" points="212.9,9.1 
			197.8,67.1 195.3,67.1 210.3,9.1 		"/>
		<polygon style="clip-path:url(#SVGID_00000026850468078683200950000006761241587243184798_);fill:#2F619A;" points="215.5,9.1 
			200.4,67.1 197.8,67.1 212.9,9.1 		"/>
		<polygon style="clip-path:url(#SVGID_00000026850468078683200950000006761241587243184798_);fill:#306099;" points="218,9.1 
			202.9,67.1 200.4,67.1 215.5,9.1 		"/>
		<polygon style="clip-path:url(#SVGID_00000026850468078683200950000006761241587243184798_);fill:#305F99;" points="220.6,9.1 
			205.5,67.1 202.9,67.1 218,9.1 		"/>
		<polygon style="clip-path:url(#SVGID_00000026850468078683200950000006761241587243184798_);fill:#305E99;" points="223.1,9.1 
			208,67.1 205.5,67.1 220.6,9.1 		"/>
		<polygon style="clip-path:url(#SVGID_00000026850468078683200950000006761241587243184798_);fill:#305D99;" points="225.7,9.1 
			210.6,67.1 208,67.1 223.1,9.1 		"/>
		<polygon style="clip-path:url(#SVGID_00000026850468078683200950000006761241587243184798_);fill:#305C98;" points="228.2,9.1 
			213.1,67.1 210.6,67.1 225.7,9.1 		"/>
		<polygon style="clip-path:url(#SVGID_00000026850468078683200950000006761241587243184798_);fill:#305B98;" points="230.8,9.1 
			215.7,67.1 213.1,67.1 228.2,9.1 		"/>
		<polygon style="clip-path:url(#SVGID_00000026850468078683200950000006761241587243184798_);fill:#305A98;" points="233.3,9.1 
			218.3,67.1 215.7,67.1 230.8,9.1 		"/>
		<polygon style="clip-path:url(#SVGID_00000026850468078683200950000006761241587243184798_);fill:#315998;" points="235.9,9.1 
			220.8,67.1 218.3,67.1 233.3,9.1 		"/>
		<polygon style="clip-path:url(#SVGID_00000026850468078683200950000006761241587243184798_);fill:#315898;" points="238.5,9.1 
			223.4,67.1 220.8,67.1 235.9,9.1 		"/>
		<polygon style="clip-path:url(#SVGID_00000026850468078683200950000006761241587243184798_);fill:#315797;" points="241,9.1 
			225.9,67.1 223.4,67.1 238.5,9.1 		"/>
		<polygon style="clip-path:url(#SVGID_00000026850468078683200950000006761241587243184798_);fill:#315697;" points="243.6,9.1 
			228.5,67.1 225.9,67.1 241,9.1 		"/>
		<polygon style="clip-path:url(#SVGID_00000026850468078683200950000006761241587243184798_);fill:#315597;" points="246.1,9.1 
			231,67.1 228.5,67.1 243.6,9.1 		"/>
		<polygon style="clip-path:url(#SVGID_00000026850468078683200950000006761241587243184798_);fill:#315497;" points="248.7,9.1 
			233.6,67.1 231,67.1 246.1,9.1 		"/>
		<polygon style="clip-path:url(#SVGID_00000026850468078683200950000006761241587243184798_);fill:#315397;" points="251.2,9.1 
			236.1,67.1 233.6,67.1 248.7,9.1 		"/>
		<polygon style="clip-path:url(#SVGID_00000026850468078683200950000006761241587243184798_);fill:#325296;" points="253.8,9.1 
			238.7,67.1 236.1,67.1 251.2,9.1 		"/>
		<polygon style="clip-path:url(#SVGID_00000026850468078683200950000006761241587243184798_);fill:#325196;" points="256.3,9.1 
			241.2,67.1 238.7,67.1 253.8,9.1 		"/>
		<polygon style="clip-path:url(#SVGID_00000026850468078683200950000006761241587243184798_);fill:#325096;" points="258.9,9.1 
			243.8,67.1 241.2,67.1 256.3,9.1 		"/>
		<polygon style="clip-path:url(#SVGID_00000026850468078683200950000006761241587243184798_);fill:#324F96;" points="261.5,9.1 
			246.4,67.1 243.8,67.1 258.9,9.1 		"/>
		<polygon style="clip-path:url(#SVGID_00000026850468078683200950000006761241587243184798_);fill:#324E96;" points="264,9.1 
			248.9,67.1 246.4,67.1 261.5,9.1 		"/>
		<polygon style="clip-path:url(#SVGID_00000026850468078683200950000006761241587243184798_);fill:#324D95;" points="266.6,9.1 
			251.5,67.1 248.9,67.1 264,9.1 		"/>
		<polygon style="clip-path:url(#SVGID_00000026850468078683200950000006761241587243184798_);fill:#324C95;" points="269.1,9.1 
			254,67.1 251.5,67.1 266.6,9.1 		"/>
		<polygon style="clip-path:url(#SVGID_00000026850468078683200950000006761241587243184798_);fill:#334B95;" points="271.7,9.1 
			256.6,67.1 254,67.1 269.1,9.1 		"/>
		<polygon style="clip-path:url(#SVGID_00000026850468078683200950000006761241587243184798_);fill:#334A95;" points="274.2,9.1 
			259.1,67.1 256.6,67.1 271.7,9.1 		"/>
		<polygon style="clip-path:url(#SVGID_00000026850468078683200950000006761241587243184798_);fill:#334995;" points="276.8,9.1 
			261.7,67.1 259.1,67.1 274.2,9.1 		"/>
		<polygon style="clip-path:url(#SVGID_00000026850468078683200950000006761241587243184798_);fill:#334894;" points="279.3,9.1 
			264.2,67.1 261.7,67.1 276.8,9.1 		"/>
		<polygon style="clip-path:url(#SVGID_00000026850468078683200950000006761241587243184798_);fill:#334794;" points="281.9,9.1 
			266.8,67.1 264.2,67.1 279.3,9.1 		"/>
		<polygon style="clip-path:url(#SVGID_00000026850468078683200950000006761241587243184798_);fill:#334694;" points="284.4,9.1 
			269.4,67.1 266.8,67.1 281.9,9.1 		"/>
		<polygon style="clip-path:url(#SVGID_00000026850468078683200950000006761241587243184798_);fill:#334594;" points="287,9.1 
			271.9,67.1 269.4,67.1 284.4,9.1 		"/>
		<polygon style="clip-path:url(#SVGID_00000026850468078683200950000006761241587243184798_);fill:#344494;" points="288.1,14.7 
			274.5,67.1 271.9,67.1 287,9.1 288.1,9.1 		"/>
		<polygon style="clip-path:url(#SVGID_00000026850468078683200950000006761241587243184798_);fill:#344393;" points="288.1,24.5 
			277,67.1 274.5,67.1 288.1,14.7 		"/>
		<polygon style="clip-path:url(#SVGID_00000026850468078683200950000006761241587243184798_);fill:#344293;" points="288.1,34.3 
			279.6,67.1 277,67.1 288.1,24.5 		"/>
		<polygon style="clip-path:url(#SVGID_00000026850468078683200950000006761241587243184798_);fill:#344193;" points="288.1,44.2 
			282.1,67.1 279.6,67.1 288.1,34.3 		"/>
		<polygon style="clip-path:url(#SVGID_00000026850468078683200950000006761241587243184798_);fill:#344193;" points="282.1,67.1 
			288.1,44.2 288.1,67.1 		"/>
	</g>
</g>
<g>
	<path class="st114" d="M45.3,41.2c0,1.5-0.2,3-0.7,4.3s-1.2,2.4-2.1,3.4s-2.1,1.7-3.4,2.2c-1.4,0.5-3,0.8-4.7,0.8
		c-1.8,0-3.4-0.3-4.8-0.8s-2.5-1.3-3.4-2.2c-0.9-1-1.6-2.1-2.1-3.4c-0.5-1.3-0.7-2.7-0.7-4.3v-16h5.7V41c0,0.8,0.1,1.6,0.4,2.2
		c0.3,0.7,0.6,1.3,1.1,1.8s1,0.9,1.7,1.2c0.6,0.3,1.4,0.4,2.1,0.4c0.8,0,1.5-0.1,2.1-0.4c0.6-0.3,1.2-0.7,1.7-1.2s0.8-1.1,1.1-1.8
		s0.4-1.4,0.4-2.2V25.2h5.7L45.3,41.2L45.3,41.2z"/>
	<path class="st114" d="M50.6,25.2h7.8l11.1,18.1h0.1V25.2h5.7v26.1h-7.5L56.4,32.7h-0.1v18.5h-5.7V25.2z"/>
	<path class="st114" d="M80.5,25.2h5.7v26.1h-5.7V25.2z"/>
	<path class="st114" d="M88.9,25.2h6.6l6.4,17.1h0.1l6.6-17.1h6.1L104,51.3h-4.6L88.9,25.2z"/>
	<path class="st114" d="M117.6,25.2h17.7v5.3h-12v4.9h11.3v5.3h-11.3v5.2h12.6v5.3h-18.4L117.6,25.2L117.6,25.2z"/>
	<path class="st114" d="M140.5,25.2h10.1c1.3,0,2.6,0.1,3.8,0.4s2.2,0.7,3.1,1.3c0.9,0.6,1.6,1.4,2.1,2.4s0.8,2.3,0.8,3.8
		c0,1.8-0.5,3.4-1.4,4.7c-1,1.3-2.4,2.1-4.2,2.4l6.6,11h-6.9l-5.4-10.4h-2.8v10.4h-5.7v-26C140.6,25.2,140.5,25.2,140.5,25.2z
		 M146.3,35.9h3.4c0.5,0,1.1,0,1.6-0.1c0.6,0,1.1-0.1,1.6-0.3c0.5-0.2,0.9-0.5,1.2-0.9c0.3-0.4,0.5-0.9,0.5-1.7
		c0-0.7-0.1-1.2-0.4-1.6c-0.3-0.4-0.6-0.7-1-0.9c-0.4-0.2-0.9-0.4-1.4-0.4c-0.5-0.1-1.1-0.1-1.6-0.1h-3.8v6H146.3z"/>
	<path class="st114" d="M177.3,31.5c-0.5-0.6-1.1-1-1.9-1.3c-0.8-0.3-1.6-0.4-2.3-0.4c-0.4,0-0.8,0-1.3,0.1
		c-0.4,0.1-0.9,0.3-1.3,0.5c-0.4,0.2-0.7,0.5-1,0.8c-0.2,0.3-0.4,0.8-0.4,1.3c0,0.8,0.3,1.4,0.9,1.8c0.6,0.4,1.3,0.8,2.2,1.1
		s1.9,0.6,2.9,0.9s2,0.7,2.9,1.3c0.9,0.5,1.6,1.3,2.2,2.2s0.9,2.1,0.9,3.6c0,1.4-0.3,2.7-0.8,3.8s-1.3,2-2.2,2.7s-2,1.2-3.2,1.6
		c-1.2,0.3-2.5,0.5-3.8,0.5c-1.7,0-3.3-0.3-4.7-0.8s-2.8-1.3-4-2.5l4.1-4.5c0.6,0.8,1.3,1.4,2.2,1.8c0.9,0.4,1.8,0.6,2.8,0.6
		c0.5,0,0.9-0.1,1.4-0.2c0.5-0.1,0.9-0.3,1.3-0.5c0.4-0.2,0.7-0.5,0.9-0.8s0.4-0.7,0.4-1.2c0-0.8-0.3-1.4-0.9-1.9
		c-0.6-0.5-1.4-0.8-2.3-1.2c-0.9-0.3-1.9-0.6-2.9-1c-1.1-0.3-2-0.7-2.9-1.3c-0.9-0.5-1.7-1.3-2.3-2.1c-0.6-0.9-0.9-2-0.9-3.5
		c0-1.4,0.3-2.6,0.8-3.7c0.6-1.1,1.3-1.9,2.2-2.7c0.9-0.7,2-1.2,3.2-1.6s2.4-0.5,3.7-0.5c1.5,0,2.9,0.2,4.3,0.6
		c1.4,0.4,2.6,1.1,3.7,2.1L177.3,31.5z"/>
	<path class="st114" d="M202.6,31.9c-0.6-0.7-1.3-1.2-2.1-1.6s-1.8-0.6-2.9-0.6c-1.1,0-2.1,0.2-3,0.6s-1.7,1-2.4,1.7
		c-0.7,0.7-1.2,1.6-1.6,2.7c-0.4,1-0.6,2.1-0.6,3.3s0.2,2.3,0.6,3.4c0.4,1,0.9,1.9,1.6,2.6c0.7,0.7,1.4,1.3,2.3,1.7
		c0.9,0.4,1.9,0.6,2.9,0.6c1.2,0,2.2-0.2,3.1-0.7c0.9-0.5,1.7-1.2,2.2-2.1l4.8,3.6c-1.1,1.5-2.5,2.7-4.2,3.4s-3.4,1.1-5.2,1.1
		c-2,0-3.9-0.3-5.6-1c-1.7-0.6-3.2-1.6-4.5-2.7s-2.2-2.6-2.9-4.3s-1-3.6-1-5.7c0-2.1,0.4-4,1-5.7c0.7-1.7,1.7-3.1,2.9-4.3
		c1.3-1.2,2.7-2.1,4.5-2.7c1.7-0.6,3.6-1,5.6-1c0.7,0,1.5,0.1,2.3,0.2s1.6,0.4,2.4,0.6c0.8,0.3,1.5,0.7,2.2,1.2s1.3,1.1,1.9,1.8
		L202.6,31.9z"/>
	<path class="st114" d="M209.3,38.2c0-2.1,0.3-4,1-5.7s1.7-3.1,2.9-4.3c1.3-1.2,2.7-2.1,4.5-2.7c1.7-0.6,3.6-1,5.6-1s3.9,0.3,5.6,1
		c1.7,0.6,3.2,1.6,4.5,2.7c1.3,1.2,2.2,2.6,2.9,4.3c0.7,1.7,1,3.6,1,5.7c0,2.1-0.3,4-1,5.7s-1.7,3.1-2.9,4.3s-2.7,2.1-4.5,2.7
		c-1.7,0.6-3.6,1-5.6,1s-3.9-0.3-5.6-1c-1.7-0.6-3.2-1.6-4.5-2.7c-1.3-1.2-2.2-2.6-2.9-4.3C209.7,42.2,209.3,40.3,209.3,38.2z
		 M215.3,38.2c0,1.2,0.2,2.3,0.6,3.4c0.4,1,0.9,1.9,1.6,2.6s1.6,1.3,2.6,1.7s2.1,0.6,3.3,0.6s2.3-0.2,3.3-0.6c1-0.4,1.8-1,2.6-1.7
		c0.7-0.7,1.3-1.6,1.6-2.6c0.4-1,0.6-2.1,0.6-3.4c0-1.2-0.2-2.3-0.6-3.3s-0.9-1.9-1.6-2.7c-0.7-0.7-1.6-1.3-2.6-1.7
		c-1-0.4-2.1-0.6-3.3-0.6s-2.3,0.2-3.3,0.6s-1.8,1-2.6,1.7c-0.7,0.7-1.3,1.6-1.6,2.7C215.5,35.9,215.3,37,215.3,38.2z"/>
	<path class="st114" d="M241.3,25.2h8.7l6,17h0.1l6-17h8.6v26.1H265v-20h-0.1l-6.8,20h-4.4l-6.6-20H247v20h-5.7V25.2z"/>
</g>
</svg>
